<svg xmlns="http://www.w3.org/2000/svg" version="1.1" xmlns:xlink="http://www.w3.org/1999/xlink" xmlns:svgjs="http://svgjs.dev/svgjs" width="1440" height="560" preserveAspectRatio="none" viewBox="0 0 1440 560"><g mask="url(&quot;#SvgjsMask1000&quot;)" fill="none"><path d="M1691.83 193.87C1585.96 195.22 1498.19 319.7 1286.62 317.07 1075.05 314.44 1015.64-24.23 881.41-50.14" stroke="rgba(229, 142, 0, 0.58)" stroke-width="2"></path><path d="M1636.69 146.1C1488.48 147.67 1356.22 309.33 1066.51 308.5 776.8 307.67 665.34-44.47 496.33-60.05" stroke="rgba(229, 142, 0, 0.58)" stroke-width="2"></path><path d="M1448.62 301.98C1324.76 298.88 1237.28 130.7 986.57 122.78 735.87 114.86 651.48-83.87 524.53-88.82" stroke="rgba(229, 142, 0, 0.58)" stroke-width="2"></path><path d="M1724.34 218.95C1575.16 221.48 1380.23 412.11 1158.71 409.35 937.2 406.59 993.79 22.76 875.9-36.71" stroke="rgba(229, 142, 0, 0.58)" stroke-width="2"></path><path d="M1465.29 472.46C1357.87 472.23 1253.32 402.46 1041.35 402.46 829.37 402.46 856.11 485.47 617.4 472.46 378.7 459.45 351.3 12.4 193.46-39.66" stroke="rgba(229, 142, 0, 0.58)" stroke-width="2"></path></g><defs><mask id="SvgjsMask1000"><rect width="1440" height="560" fill="#ffffff"></rect></mask></defs></svg>