<svg xmlns="http://www.w3.org/2000/svg" version="1.1" xmlns:xlink="http://www.w3.org/1999/xlink" xmlns:svgjs="http://svgjs.dev/svgjs" width="1440" height="560" preserveAspectRatio="none" viewBox="0 0 1440 560"><g mask="url(&quot;#SvgjsMask1002&quot;)" fill="none"><path d="M1093.08-9.15C982.36-7.93 880.75 113.79 667.6 113.82 454.45 113.85 454.86 43.82 242.12 43.82 29.38 43.82-75.56 113.59-183.36 113.82" stroke="rgba(229, 142, 0, 0.58)" stroke-width="2"></path><path d="M933.92-97.41C768.13-83.62 674.62 243.4 368.09 252.81 61.55 262.22-52.98 375.3-197.75 376.01" stroke="rgba(229, 142, 0, 0.58)" stroke-width="2"></path><path d="M1080.98-83.01C915.74-72.95 810.77 226.31 499.5 233.85 188.24 241.39 66.92 361.88-81.97 362.65" stroke="rgba(229, 142, 0, 0.58)" stroke-width="2"></path><path d="M688.86-66.01C569.11-1.24 626.17 398 407.15 400.06 188.14 402.12-3.7 169.52-156.26 164.86" stroke="rgba(229, 142, 0, 0.58)" stroke-width="2"></path><path d="M540.38-34.45C430.01 21.78 482.46 382.53 276.35 384.81 70.25 387.09-111.4 197.29-251.7 194.41" stroke="rgba(229, 142, 0, 0.58)" stroke-width="2"></path></g><defs><mask id="SvgjsMask1002"><rect width="1440" height="560" fill="#ffffff"></rect></mask></defs></svg>