<svg xmlns="http://www.w3.org/2000/svg" version="1.1" xmlns:xlink="http://www.w3.org/1999/xlink" xmlns:svgjs="http://svgjs.dev/svgjs" width="1440" height="560" preserveAspectRatio="none" viewBox="0 0 1440 560"><g mask="url(&quot;#SvgjsMask1454&quot;)" fill="none"><rect width="1440" height="560" x="0" y="0" fill="url(&quot;#SvgjsLinearGradient1455&quot;)"></rect><path d="M1440 0L731.17 0L1440 252z" fill="rgba(255, 255, 255, .1)"></path><path d="M731.17 0L1440 252L1440 289.76L536.52 0z" fill="rgba(255, 255, 255, .075)"></path><path d="M536.52 0L1440 289.76L1440 325.1L327.88 0z" fill="rgba(255, 255, 255, .05)"></path><path d="M327.8800000000001 0L1440 325.1L1440 452.62L216.9800000000001 0z" fill="rgba(255, 255, 255, .025)"></path><path d="M0 560L117.97 560L0 332.65999999999997z" fill="rgba(0, 0, 0, .1)"></path><path d="M0 332.65999999999997L117.97 560L581.68 560L0 239.48999999999995z" fill="rgba(0, 0, 0, .075)"></path><path d="M0 239.49L581.68 560L595.43 560L0 198.94z" fill="rgba(0, 0, 0, .05)"></path><path d="M0 198.94L595.43 560L867.04 560L0 112.00999999999999z" fill="rgba(0, 0, 0, .025)"></path></g><defs><mask id="SvgjsMask1454"><rect width="1440" height="560" fill="#ffffff"></rect></mask><linearGradient x1="15.28%" y1="-39.29%" x2="84.72%" y2="139.29%" gradientUnits="userSpaceOnUse" id="SvgjsLinearGradient1455"><stop stop-color="rgba(242, 196, 0, 0.75)" offset="0.01"></stop><stop stop-color="rgba(0, 69, 158, 0.13)" offset="0.46"></stop><stop stop-color="rgba(0, 69, 158, 0.13)" offset="0.46"></stop><stop stop-color="rgba(0, 69, 158, 0.13)" offset="0.58"></stop><stop stop-color="rgba(152, 158, 0, 0.13)" offset="0.58"></stop><stop stop-color="rgba(0, 69, 158, 0.13)" offset="0.68"></stop><stop stop-color="rgba(0, 69, 158, 0.13)" offset="1"></stop></linearGradient></defs></svg>